<svg width="56" height="56" viewBox="0 0 56 56" fill="none" xmlns="http://www.w3.org/2000/svg">
<path d="M19.2364 5.73298C33.2364 0.986978 49.2804 11.207 53.8444 24.773C58.4084 38.339 47.6636 43.638 33.5796 48.412C19.4956 53.186 7.67959 55.545 3.12959 41.979C-1.42041 28.413 5.23643 10.493 19.2364 5.73298Z" fill="#D8F4F3"/>
<path d="M11.7285 42.1191L12.9183 41.8041C12.9342 41.4483 12.9929 41.0957 13.0933 40.7541C13.0933 40.7541 18.6305 11.5571 19.7505 8.50507C21.0805 5.00507 22.0255 4.69006 33.5755 3.85006C38.0275 3.53506 41.1425 3.04507 43.1725 3.25507C43.1725 3.25507 43.6275 1.85506 43.8725 2.10006C44.5378 2.79586 45.1141 3.57184 45.5876 4.41007C46.0102 5.02982 46.2412 5.76004 46.2524 6.51007C46.5324 10.1151 43.5576 33.8101 40.5126 43.0291C39.7426 45.3391 37.7824 46.0741 35.7804 46.3541C30.4954 47.1241 20.5904 46.9841 16.1384 46.2141C15.2561 46.1067 14.4142 45.782 13.6884 45.2691C12.7606 44.4169 12.0831 43.3278 11.7285 42.1191Z" fill="#FF9A00"/>
<path d="M11.7285 42.1189L12.9183 41.8039C12.9183 41.6989 12.9535 41.5589 12.9535 41.4539C14.1085 41.3139 15.1583 41.1739 15.3683 41.1039C15.9283 40.9289 35.7803 41.1039 37.0683 42.0489C37.7683 42.5739 38.5035 43.9389 39.0285 45.1289C38.0606 45.8337 36.9228 46.2685 35.7315 46.3889C30.4465 47.1589 20.5415 47.0189 16.0895 46.2489C15.2072 46.1416 14.3654 45.8168 13.6395 45.3039C12.7381 44.4251 12.0797 43.3278 11.7285 42.1189Z" fill="#FF9900"/>
<path d="M31.9993 1.6801C40.6513 1.0501 44.2914 -0.1399 44.6414 4.3401C44.9214 7.9451 41.9462 31.6401 38.9012 40.8591C38.1313 43.1691 36.1644 43.9041 34.1694 44.1841C28.8844 44.9541 18.9794 44.8141 14.5274 44.0441C10.2224 43.2741 11.4823 38.5841 11.4823 38.5841C11.4823 38.5841 17.0125 9.38009 18.1395 6.33509C19.4695 2.83509 20.4353 2.5551 31.9993 1.6801Z" fill="#FFCF42"/>
<path d="M41.7363 7.9801C41.8474 7.97089 41.9591 7.9866 42.0634 8.02608C42.1676 8.06556 42.2617 8.12781 42.3388 8.2083C42.416 8.28879 42.474 8.38548 42.5091 8.49132C42.5441 8.59716 42.5551 8.70949 42.5412 8.8201C42.5412 8.8201 40.161 29.2321 38.306 35.9241C38.2306 36.1813 38.0726 36.4065 37.8562 36.5647C37.6398 36.7229 37.377 36.8053 37.109 36.7991L14.212 36.6241C14.1059 36.6198 14.002 36.5928 13.9072 36.5449C13.8123 36.4969 13.7291 36.4292 13.6628 36.3462C13.5964 36.2633 13.5486 36.167 13.5226 36.064C13.4967 35.961 13.4929 35.8536 13.512 35.7491C13.512 35.7491 17.0122 16.6671 18.7692 10.2201C18.8346 9.98799 18.9709 9.78219 19.1592 9.63154C19.3475 9.4809 19.5784 9.39298 19.8192 9.3801L41.7363 7.9801Z" fill="white"/>
<path d="M39.3366 10.15C39.4309 10.1401 39.5264 10.1514 39.6158 10.183C39.7052 10.2147 39.7863 10.266 39.8534 10.3331C39.9204 10.4001 39.9717 10.4814 40.0034 10.5708C40.0351 10.6602 40.0465 10.7556 40.0366 10.85C40.0366 10.85 38.0345 28.203 36.4665 33.887C36.4059 34.1043 36.2745 34.2953 36.0932 34.4296C35.912 34.564 35.6913 34.6342 35.4657 34.629L16.1665 34.482C16.0742 34.4826 15.9829 34.4628 15.8992 34.4239C15.8155 34.3849 15.7418 34.3279 15.6828 34.2569C15.6239 34.1859 15.5813 34.1027 15.5584 34.0133C15.5356 33.9239 15.5329 33.8306 15.5506 33.74C15.5506 33.74 18.4974 17.514 19.9744 12.04C20.0321 11.8457 20.1485 11.6741 20.3077 11.5487C20.4669 11.4233 20.6611 11.3504 20.8635 11.34L39.3366 10.15Z" fill="#D8F4F3"/>
<path d="M26.6594 5.94302C26.7213 5.80363 26.7257 5.6455 26.672 5.50275C26.6183 5.36 26.5107 5.24408 26.3723 5.18003C26.2238 5.14393 26.0672 5.16776 25.9361 5.24637C25.8051 5.32498 25.7103 5.45203 25.6723 5.60002C25.6106 5.74129 25.6067 5.90114 25.6617 6.04516C25.7167 6.18917 25.8261 6.30584 25.9662 6.37002C26.1146 6.40382 26.2704 6.37801 26.4 6.29816C26.5296 6.21831 26.6228 6.09079 26.6594 5.94302Z" fill="#FEC102"/>
<path d="M34.3444 5.80999L28.1494 6.33499C28.0728 6.34858 27.9942 6.3435 27.92 6.32016C27.8459 6.29683 27.7785 6.25593 27.7235 6.20096C27.6685 6.14599 27.6275 6.07855 27.6042 6.00439C27.5809 5.93023 27.5759 5.85153 27.5895 5.77498C27.6302 5.606 27.7228 5.45414 27.8547 5.34103C27.9867 5.22792 28.1512 5.15932 28.3244 5.14499L34.5194 4.61999C34.596 4.6064 34.6746 4.61148 34.7488 4.63481C34.8229 4.65815 34.8903 4.69904 34.9453 4.75402C35.0003 4.80899 35.0413 4.87642 35.0646 4.95058C35.0879 5.02474 35.0929 5.10344 35.0793 5.17999C35.0387 5.34898 34.9457 5.50083 34.8137 5.61394C34.6818 5.72706 34.5177 5.79566 34.3444 5.80999Z" fill="#E88400"/>
<path d="M27.6253 38.5839L22.1654 38.5139C21.8461 38.5344 21.5432 38.6637 21.3075 38.8802C21.0719 39.0967 20.9177 39.3874 20.8704 39.7039L20.7302 40.6489C20.707 40.8245 20.7191 41.003 20.7654 41.1739C20.8566 41.2946 20.9721 41.3945 21.1048 41.4669C21.2376 41.5394 21.3843 41.5827 21.5352 41.5939L26.9954 41.6639C27.3078 41.6569 27.6077 41.5412 27.8441 41.3368C28.0804 41.1324 28.2384 40.852 28.2904 40.5439L28.4302 39.6689C28.4586 39.4154 28.41 39.1592 28.2904 38.9339C28.2116 38.8309 28.111 38.7463 27.9962 38.6858C27.8813 38.6254 27.7549 38.5906 27.6253 38.5839Z" fill="#E88400"/>
<path d="M16.5015 31.4931C16.1655 33.2081 15.1367 34.7901 16.8447 35.2941C18.2447 35.7001 30.6625 36.0991 34.4705 35.6721C34.8739 35.6111 35.25 35.4304 35.5495 35.1533C35.8491 34.8763 36.0586 34.5156 36.1507 34.1181C36.8522 32.0867 37.2575 29.965 37.3545 27.8181C37.4105 26.0891 35.4856 26.1941 35.4856 26.1941C35.4856 26.1941 20.7085 26.3271 19.4345 26.5161C17.9715 26.7471 17.7825 27.1041 16.5015 31.4931Z" fill="#B8E2E1"/>
<path d="M12.6584 28.525C12.2944 30.422 11.1534 32.172 13.0364 32.725C14.5554 33.173 28.2963 33.614 32.5103 33.145C32.9545 33.0768 33.3679 32.8769 33.6973 32.5711C34.0268 32.2654 34.2572 31.8679 34.3584 31.43C35.1305 29.1834 35.5783 26.8381 35.6883 24.465C35.7443 22.554 33.6304 22.666 33.6304 22.666C33.6304 22.666 17.3063 22.82 15.8993 23.023C14.2823 23.275 14.0794 23.667 12.6584 28.525Z" fill="#D0D3E2"/>
<path d="M12.287 32.151L10.334 29.015L33.3851 20.293L35.3241 23.275L12.287 32.151Z" fill="#D0D3E2"/>
<path d="M10.6349 25.2771C10.2709 27.1811 9.12998 28.9241 11.013 29.4771C12.532 29.9251 26.2729 30.3731 30.4869 29.8971C30.9311 29.8288 31.3448 29.6289 31.6743 29.3232C32.0037 29.0174 32.2338 28.62 32.335 28.1821C33.1137 25.9251 33.5616 23.5673 33.6649 21.1821C33.7279 19.2711 31.6069 19.3831 31.6069 19.3831C31.6069 19.3831 15.2829 19.5371 13.8759 19.7401C12.2309 20.0271 12.0349 20.4191 10.6349 25.2771Z" fill="white"/>
<path d="M12.7367 23.2469C12.8055 23.0285 12.9095 22.8228 13.0447 22.6379C13.1671 22.4717 13.319 22.3293 13.4928 22.2179C13.6608 22.1082 13.8449 22.0255 14.0386 21.9729C14.233 21.9228 14.4329 21.897 14.6337 21.8959C14.8758 21.8712 15.1197 21.92 15.3337 22.0359C15.4597 22.1199 15.4878 22.2809 15.4178 22.4979C15.3912 22.5901 15.346 22.6759 15.2848 22.7499C15.2357 22.8148 15.1767 22.8715 15.1098 22.9179L14.8647 22.8619C14.7624 22.8499 14.6591 22.8499 14.5568 22.8619C14.3919 22.8569 14.2282 22.893 14.0807 22.9669C14.0142 23.0033 13.9563 23.0533 13.9104 23.1136C13.8646 23.1739 13.832 23.2432 13.8147 23.3169L13.7447 23.5409H14.8367C14.8448 23.606 14.8448 23.6718 14.8367 23.7369C14.8353 23.8225 14.8211 23.9075 14.7947 23.9889C14.761 24.1239 14.688 24.2457 14.5848 24.3389C14.4993 24.4126 14.3898 24.4525 14.2769 24.4509H13.5136L12.8136 26.6699L12.5966 26.7119C12.4964 26.7189 12.396 26.7189 12.2958 26.7119C12.2096 26.7197 12.1229 26.7197 12.0367 26.7119C11.9736 26.7012 11.915 26.672 11.8686 26.6279C11.8262 26.5819 11.8017 26.5224 11.7988 26.4599C11.8014 26.3624 11.8178 26.2658 11.8477 26.1729L12.7367 23.2469Z" fill="#646464"/>
<path d="M18.2388 24.9481C18.156 25.2213 18.0334 25.4808 17.8748 25.7181C17.729 25.9365 17.5496 26.1302 17.3429 26.2921C17.1433 26.4426 16.9213 26.5607 16.685 26.6421C16.4432 26.7212 16.1901 26.7614 15.9357 26.7611C15.7076 26.7673 15.481 26.7244 15.271 26.6351C15.0932 26.5599 14.9419 26.4331 14.8369 26.2711C14.728 26.1016 14.6675 25.9055 14.6619 25.7041C14.6513 25.4473 14.6894 25.1908 14.774 24.9481C14.8542 24.6817 14.9744 24.4292 15.1308 24.1991C15.2804 23.9838 15.4597 23.7906 15.663 23.6251C15.8623 23.4724 16.0843 23.352 16.321 23.2681C16.5617 23.1839 16.8148 23.1413 17.0698 23.1421C17.3096 23.1319 17.5487 23.1749 17.7698 23.2681C17.9435 23.35 18.0931 23.4754 18.2039 23.6321C18.3098 23.8056 18.37 24.0031 18.3789 24.2061C18.381 24.4602 18.3333 24.7122 18.2388 24.9481ZM15.9217 24.9481C15.8394 25.155 15.8224 25.3822 15.8729 25.5991C15.899 25.6727 15.9491 25.7354 16.015 25.7773C16.081 25.8192 16.1591 25.8377 16.2369 25.8301C16.331 25.827 16.4235 25.8049 16.5089 25.7653C16.5943 25.7256 16.6708 25.6691 16.7338 25.5991C16.8997 25.4113 17.0218 25.1889 17.091 24.9481C17.1734 24.7412 17.1903 24.514 17.1399 24.2971C17.1138 24.2254 17.0644 24.1644 16.9998 24.1238C16.9351 24.0832 16.8587 24.0654 16.7827 24.0731C16.6879 24.0744 16.5945 24.0949 16.5079 24.1334C16.4213 24.1719 16.3434 24.2276 16.2789 24.2971C16.113 24.4849 15.9909 24.7073 15.9217 24.9481Z" fill="#646464"/>
<path d="M19.4061 26.635L19.1822 26.677H18.8811C18.7973 26.6851 18.713 26.6851 18.6292 26.677C18.5659 26.6716 18.5067 26.6444 18.4613 26.6C18.4185 26.5515 18.3937 26.4896 18.3913 26.425C18.3873 26.3298 18.4016 26.2348 18.4333 26.145L19.7072 22.085L19.9311 22.043C20.0313 22.0364 20.132 22.0364 20.2322 22.043C20.316 22.0348 20.4003 22.0348 20.4841 22.043C20.5483 22.0502 20.6079 22.08 20.6522 22.127C20.6951 22.1755 20.7199 22.2373 20.7223 22.302C20.7262 22.3971 20.712 22.4922 20.6803 22.582L19.4061 26.635Z" fill="#646464"/>
<path d="M21.2619 26.6349L21.0308 26.6769H20.7369C20.6531 26.6851 20.5684 26.6851 20.4846 26.6769C20.4205 26.6697 20.3611 26.6399 20.3168 26.5929C20.2944 26.5711 20.2765 26.545 20.2645 26.5161C20.2525 26.4872 20.2464 26.4562 20.2467 26.4249C20.2428 26.3275 20.2571 26.2302 20.2888 26.138L21.5627 22.0779L21.7869 22.0429C21.887 22.0329 21.9876 22.0329 22.0877 22.0429C22.1715 22.0351 22.2561 22.0351 22.3399 22.0429C22.403 22.0536 22.4613 22.0829 22.5077 22.1269C22.5516 22.1748 22.5766 22.237 22.5778 22.3019C22.5817 22.3971 22.5674 22.4921 22.5358 22.5819L21.2619 26.6349Z" fill="#646464"/>
<path d="M25.8336 24.9411C25.7485 25.2146 25.6237 25.4741 25.4628 25.7111C25.3191 25.9311 25.139 26.1251 24.9306 26.2851C24.731 26.4356 24.509 26.5537 24.2727 26.6351C24.0333 26.7143 23.7827 26.7545 23.5306 26.7541C23.2909 26.7637 23.052 26.7207 22.8306 26.6281C22.656 26.5511 22.5058 26.4276 22.3965 26.2711C22.2918 26.0971 22.2317 25.9 22.2215 25.6971C22.2144 25.4405 22.2525 25.1846 22.3337 24.9411C22.4164 24.6745 22.5391 24.4219 22.6977 24.1921C22.8433 23.9757 23.0231 23.7842 23.2298 23.6251C23.4262 23.4663 23.6489 23.3431 23.8878 23.2611C24.1283 23.1763 24.3816 23.1336 24.6367 23.1351C24.8648 23.1289 25.0918 23.1719 25.3018 23.2611C25.4767 23.341 25.6264 23.4668 25.7356 23.6251C25.8434 23.7977 25.9038 23.9957 25.9106 24.1991C25.9294 24.4491 25.9034 24.7004 25.8336 24.9411ZM23.5166 24.9411C23.431 25.1473 23.414 25.3755 23.4677 25.5921C23.4928 25.6664 23.5427 25.7299 23.6089 25.772C23.6751 25.814 23.7538 25.832 23.8317 25.8231C23.9259 25.82 24.0184 25.798 24.1038 25.7583C24.1892 25.7186 24.2657 25.6621 24.3287 25.5921C24.4947 25.4055 24.6146 25.1825 24.6787 24.9411C24.7648 24.7351 24.7818 24.5067 24.7276 24.2901C24.7026 24.2177 24.6538 24.1559 24.5888 24.1152C24.5239 24.0744 24.4469 24.0571 24.3708 24.0661C24.276 24.0674 24.1822 24.0879 24.0956 24.1264C24.009 24.1649 23.9311 24.2206 23.8666 24.2901C23.7006 24.4767 23.5807 24.6997 23.5166 24.9411Z" fill="#646464"/>
<path d="M27.6733 26.537C27.582 26.5949 27.4831 26.6397 27.3794 26.67C27.2523 26.7083 27.1201 26.7271 26.9873 26.726C26.8358 26.7323 26.685 26.7035 26.5464 26.642C26.4968 26.6255 26.4524 26.596 26.4179 26.5567C26.3834 26.5173 26.3603 26.4694 26.3506 26.418C26.3389 26.2409 26.3389 26.0632 26.3506 25.886C26.3506 25.6387 26.3715 25.3727 26.4135 25.088C26.4555 24.8034 26.4904 24.5094 26.5184 24.206C26.5184 23.905 26.5955 23.639 26.6305 23.415C26.7238 23.3416 26.8276 23.2826 26.9385 23.24C27.0539 23.1927 27.1777 23.1689 27.3025 23.17C27.426 23.1604 27.5483 23.1979 27.6453 23.275C27.72 23.345 27.7412 23.471 27.7085 23.653C27.6455 24.003 27.5895 24.297 27.5475 24.528C27.5055 24.759 27.4774 24.948 27.4494 25.095L27.3866 25.431C27.3866 25.508 27.3866 25.571 27.3866 25.62C27.4216 25.543 27.4846 25.431 27.5616 25.291L27.8275 24.808L28.1494 24.213C28.2684 24.003 28.3803 23.793 28.4923 23.583C28.5884 23.5317 28.6893 23.4895 28.7934 23.457C28.9029 23.4275 29.016 23.4134 29.1294 23.415C29.2575 23.4103 29.385 23.4367 29.5006 23.492C29.5445 23.5138 29.581 23.5479 29.6058 23.5901C29.6307 23.6324 29.6427 23.681 29.6404 23.73C29.6404 23.94 29.6405 24.136 29.6055 24.332C29.5705 24.528 29.6053 24.703 29.5703 24.871C29.5353 25.039 29.5704 25.179 29.5354 25.312C29.5004 25.445 29.5354 25.543 29.5354 25.613H29.5703C29.7313 25.256 29.8924 24.913 30.0604 24.493C30.2284 24.073 30.3964 23.716 30.5574 23.31C30.6498 23.2648 30.7459 23.2274 30.8445 23.198C30.9363 23.1765 31.0301 23.1647 31.1244 23.163C31.2501 23.1537 31.3747 23.1911 31.4744 23.268C31.5514 23.338 31.5655 23.464 31.5165 23.632C31.4755 23.7463 31.4286 23.8584 31.3763 23.968L31.1313 24.472C31.0403 24.661 30.9353 24.857 30.8233 25.06L30.5013 25.655L30.2074 26.173C30.1164 26.327 30.0395 26.446 29.9835 26.53C29.8835 26.5968 29.7718 26.6442 29.6544 26.67C29.5146 26.704 29.3713 26.7204 29.2275 26.719C28.8565 26.719 28.6673 26.621 28.6673 26.425V26.11C28.6673 25.984 28.6673 25.837 28.6673 25.683C28.6673 25.529 28.6673 25.375 28.6673 25.207C28.6673 25.039 28.6675 24.878 28.7165 24.724C28.6395 24.892 28.5486 25.06 28.4506 25.235L28.1494 25.746C28.0514 25.914 27.9605 26.061 27.8835 26.201C27.8065 26.341 27.7223 26.446 27.6733 26.537Z" fill="#646464"/>
<path d="M19.7858 8.28796C19.7858 8.28796 13.9337 10.843 10.4688 14.889L35.3119 13.587C35.3119 13.587 40.7369 7.84695 42.3119 6.82495L19.7858 8.28796Z" fill="#3C9547"/>
<path d="M37.1583 7.17495C34.1791 9.02012 31.482 11.2858 29.1504 13.902L35.3103 13.587C35.3103 13.587 40.7353 7.84695 42.3103 6.82495L37.1583 7.17495Z" fill="#47DB58"/>
<path d="M24.7202 7.94498C21.7183 9.69057 19.0128 11.9022 16.7051 14.497L22.893 14.238C22.893 14.238 27.597 8.81298 31.118 7.55298L24.7202 7.94498Z" fill="#47DB58"/>
<path d="M35.3105 13.587L41.6594 16.233C41.6594 16.233 43.3464 6.82495 42.3594 6.82495C41.7294 6.82495 35.3105 13.587 35.3105 13.587Z" fill="#3C9547"/>
<path d="M10.4825 14.8261C10.4825 14.8261 9.56556 18.6481 12.9466 18.6481C16.3276 18.6481 16.7056 14.4971 16.7056 14.4971L10.4825 14.8261Z" fill="#186220"/>
<path d="M16.7328 14.504C16.7328 14.504 15.8228 18.3261 19.1968 18.3261C22.5708 18.3261 22.9559 14.175 22.9559 14.175L16.7328 14.504Z" fill="#3C9547"/>
<path d="M22.9279 14.2311C22.9279 14.2311 22.0177 18.0531 25.3987 18.0531C28.7797 18.0531 29.151 13.9021 29.151 13.9021L22.9279 14.2311Z" fill="#186220"/>
<path d="M29.088 13.9369C29.088 13.9369 28.171 17.7589 31.552 17.7589C34.933 17.7589 35.3111 13.6079 35.3111 13.6079L29.088 13.9369Z" fill="#3C9547"/>
<path d="M10.4824 14.8259C10.4824 14.8259 16.2994 14.1749 23.0824 13.9019C29.8654 13.6289 35.3184 13.6079 35.3184 13.6079C35.3184 13.6079 28.6546 14.2379 22.2566 14.4969C15.8586 14.7559 10.4824 14.8259 10.4824 14.8259Z" fill="#47DB58"/>
</svg>
