<svg width="54" height="54" viewBox="0 0 54 54" fill="none" xmlns="http://www.w3.org/2000/svg">
<g clip-path="url(#clip0_3336_66752)">
<path d="M54 0H0V54H54V0Z" fill="white"/>
<path d="M16.173 49.2278C29.322 54.7628 45.5828 46.1633 51.0773 33.561C56.5718 20.9588 46.5954 15.1402 33.4531 9.56475C20.3109 3.98925 9.03834 0.891008 3.55734 13.5203C-1.92366 26.1495 3.0308 43.7198 16.173 49.2278Z" fill="#D8F4F3"/>
<path d="M38.0855 46.2105C40.9205 46.5548 42.2301 44.8605 42.5406 42.336C42.6148 41.7555 42.6891 41.1278 42.7634 40.5135C42.8144 40.0995 42.783 39.6795 42.6714 39.2775C42.5599 38.8756 42.3702 38.4996 42.1131 38.171C41.8561 37.8425 41.5368 37.5679 41.1735 37.3629C40.8101 37.158 40.41 37.0267 39.9958 36.9765L32.9759 36.1125C32.4958 36.0533 32.0085 36.1044 31.5511 36.262C31.0937 36.4196 30.6783 36.6795 30.3365 37.0219C29.9948 37.3643 29.7355 37.7802 29.5788 38.2379C29.4221 38.6956 29.372 39.183 29.4321 39.663L29.8237 42.7748C29.9128 43.477 30.2329 44.1296 30.734 44.6295C31.2352 45.1294 31.8885 45.4482 32.5909 45.5355L38.0855 46.2105Z" fill="#E88400"/>
<path d="M33.5834 39.1365L37.019 11.1848C37.0765 10.6755 36.9321 10.164 36.6166 9.7601C36.3011 9.35623 35.8396 9.09222 35.3315 9.02477L16.4315 6.70276C15.9219 6.6435 15.4097 6.78737 15.0054 7.10322C14.6011 7.41907 14.3375 7.88146 14.2717 8.39026L10.8493 36.3353C10.7445 37.1793 10.8075 38.0357 11.0342 38.8554C11.2609 39.6752 11.647 40.4422 12.1706 41.1124C12.6941 41.7827 13.3447 42.3431 14.0852 42.7616C14.8256 43.18 15.6413 43.4483 16.4856 43.551L32.8612 45.576L38.1195 46.2173C34.5285 45.7853 33.1716 42.6938 33.5834 39.1365Z" fill="#FFCF42"/>
<path opacity="0.5" d="M18.2271 11.7316L32.4021 13.4664C32.5931 13.4898 32.7777 13.5506 32.9452 13.6454C33.1128 13.7401 33.2602 13.867 33.3786 14.0187C33.4971 14.1704 33.5844 14.344 33.6357 14.5295C33.6871 14.715 33.7015 14.9089 33.6779 15.0999C33.6306 15.4845 33.4327 15.8346 33.1278 16.0737C32.8229 16.3128 32.4358 16.4214 32.051 16.3756L17.876 14.6341C17.6855 14.6116 17.5014 14.5516 17.3342 14.4574C17.167 14.3632 17.0201 14.2368 16.9021 14.0855C16.7841 13.9343 16.6973 13.7611 16.6467 13.576C16.596 13.391 16.5826 13.1977 16.6071 13.0074C16.6297 12.8173 16.6895 12.6334 16.7831 12.4664C16.8768 12.2994 17.0025 12.1525 17.1529 12.034C17.3034 11.9155 17.4755 11.8278 17.6598 11.776C17.8442 11.7241 18.0369 11.709 18.2271 11.7316Z" fill="#ED7200"/>
<path opacity="0.5" d="M17.5927 18.1102L31.7677 19.845C32.1529 19.8939 32.503 20.093 32.742 20.399C32.981 20.705 33.0894 21.093 33.0436 21.4785C32.9947 21.8631 32.7951 22.2127 32.4889 22.4506C32.1827 22.6885 31.7946 22.7952 31.4098 22.7475L17.2348 21.0127C16.8497 20.9638 16.4995 20.7647 16.2605 20.4587C16.0216 20.1527 15.9135 19.7647 15.9593 19.3792C15.9826 19.1884 16.0434 19.0041 16.1383 18.8368C16.2331 18.6696 16.3602 18.5228 16.512 18.4049C16.6638 18.2869 16.8374 18.2002 17.0229 18.1496C17.2084 18.099 17.4021 18.0857 17.5927 18.1102Z" fill="#ED7200"/>
<path opacity="0.5" d="M16.9582 24.4418L31.1332 26.1833C31.324 26.2059 31.5082 26.2659 31.6757 26.36C31.8432 26.4541 31.9905 26.5803 32.1091 26.7315C32.2277 26.8827 32.3151 27.0558 32.3665 27.2409C32.4179 27.426 32.4323 27.6194 32.4087 27.8101C32.3853 28.0011 32.3245 28.1857 32.2297 28.3533C32.135 28.5208 32.0083 28.668 31.8566 28.7865C31.7049 28.905 31.5313 28.9924 31.3458 29.0438C31.1603 29.0951 30.9663 29.1094 30.7753 29.0858L16.6003 27.3443C16.4095 27.3217 16.2252 27.2617 16.0577 27.1676C15.8902 27.0736 15.7429 26.9473 15.6243 26.7961C15.5058 26.645 15.4184 26.4719 15.3669 26.2868C15.3155 26.1017 15.3012 25.9082 15.3247 25.7176C15.3737 25.3324 15.5728 24.9822 15.8788 24.7433C16.1847 24.5043 16.5727 24.396 16.9582 24.4418Z" fill="#ED7200"/>
<path d="M19.244 38.9813C18.9348 39.0261 18.6203 38.9481 18.368 38.7639C18.1156 38.5797 17.9455 38.3039 17.894 37.9957L17.3743 34.83C17.2875 34.2972 17.0965 33.7869 16.8116 33.3285C16.5268 32.87 16.154 32.4724 15.7148 32.1587C15.2755 31.845 14.7785 31.6213 14.2524 31.5005C13.7263 31.3797 13.1813 31.3643 12.6493 31.455C12.1169 31.5426 11.6073 31.7344 11.1493 32.0195C10.6913 32.3047 10.2941 32.6774 9.98056 33.1164C9.66698 33.5554 9.44287 34.0521 9.32171 34.5778C9.20056 35.1035 9.18444 35.648 9.27425 36.18L9.79401 39.3457C9.83888 39.6549 9.76103 39.9694 9.57681 40.2218C9.3926 40.4741 9.11671 40.6443 8.80854 40.6957C8.49862 40.7387 8.18427 40.659 7.93216 40.4737C7.68005 40.2884 7.51007 40.0121 7.45854 39.7035L6.93878 36.5445C6.66016 34.8331 7.07251 33.0812 8.08509 31.6737C9.09767 30.2662 10.6276 29.3184 12.3388 29.0385C14.0499 28.7617 15.8011 29.1748 17.2081 30.187C18.6152 31.1993 19.5633 32.7282 19.8449 34.4385L20.3646 37.5975C20.3775 37.9248 20.2708 38.2457 20.0647 38.5003C19.8585 38.7549 19.5669 38.9258 19.244 38.9813Z" fill="#00AA5B"/>
<path d="M23.5437 37.962L4.0228 41.175C3.51446 41.2568 2.9945 41.1336 2.57689 40.8324C2.15929 40.5312 1.87828 40.0766 1.79543 39.5685C1.71714 39.0616 1.84069 38.5443 2.13985 38.1278C2.43902 37.7112 2.88964 37.4287 3.39493 37.341L22.9162 34.128C23.4243 34.0459 23.9443 34.168 24.3628 34.4677C24.7813 34.7673 25.0641 35.2202 25.1502 35.7277C25.1916 35.9799 25.1831 36.2378 25.1248 36.4867C25.0665 36.7356 24.9596 36.9705 24.8104 37.178C24.6611 37.3855 24.4727 37.5616 24.2553 37.6961C24.038 37.8306 23.796 37.921 23.5437 37.962Z" fill="#176C45"/>
<path d="M20.7428 47.9385L9.90913 49.7205C9.28208 49.8235 8.63843 49.7149 8.07991 49.4118C7.52138 49.1087 7.07954 48.6284 6.82417 48.0465L3.90137 41.2155L23.6046 37.9755L23.1254 45.3465C23.0716 45.9815 22.8085 46.5806 22.3772 47.0498C21.9459 47.5189 21.371 47.8315 20.7428 47.9385Z" fill="#00AA5B"/>
<path d="M10.9752 47.2973C10.7436 47.3344 10.5069 47.2787 10.3161 47.1422C10.1252 47.0057 9.99584 46.7995 9.95614 46.5683L9.28114 42.5183C9.24594 42.2859 9.3031 42.0489 9.44066 41.8584C9.57823 41.6678 9.78513 41.5388 10.0168 41.499C10.1321 41.4798 10.25 41.4836 10.3638 41.5102C10.4777 41.5369 10.5851 41.5858 10.6799 41.6542C10.7747 41.7226 10.8551 41.8092 10.9162 41.9088C10.9774 42.0085 11.0182 42.1193 11.0362 42.2348L11.7112 46.2848C11.7463 46.5164 11.6887 46.7525 11.551 46.942C11.4133 47.1314 11.2063 47.2591 10.9752 47.2973Z" fill="#176C45"/>
<path d="M15.3628 46.575C15.1312 46.6122 14.8945 46.5564 14.7036 46.42C14.5128 46.2835 14.3834 46.0772 14.3437 45.846L13.6687 41.796C13.6316 41.5643 13.6872 41.3274 13.8236 41.1366C13.9601 40.9457 14.1666 40.8164 14.3978 40.7767C14.5136 40.7565 14.6322 40.7596 14.7468 40.7858C14.8614 40.8119 14.9697 40.8607 15.0652 40.9292C15.1607 40.9977 15.2416 41.0846 15.3032 41.1847C15.3647 41.2849 15.4058 41.3963 15.4238 41.5125L16.0988 45.5625C16.1209 45.6777 16.119 45.7963 16.0935 45.9108C16.068 46.0253 16.0195 46.1334 15.9505 46.2283C15.8815 46.3232 15.7938 46.4029 15.6927 46.4626C15.5917 46.5222 15.4792 46.5605 15.3628 46.575Z" fill="#176C45"/>
<path d="M19.7708 45.8527C19.5382 45.8897 19.3004 45.8331 19.1093 45.6952C18.9183 45.5573 18.7895 45.3494 18.7514 45.117L18.0764 41.1007C18.0393 40.8691 18.0952 40.6321 18.2316 40.4413C18.3681 40.2505 18.5742 40.1211 18.8055 40.0815C18.9203 40.0621 19.0378 40.0657 19.1512 40.0919C19.2646 40.1182 19.3719 40.1665 19.4666 40.2342C19.5613 40.302 19.6418 40.3877 19.7033 40.4866C19.7647 40.5855 19.8061 40.6956 19.8249 40.8105L20.4999 44.8605C20.5312 45.0882 20.4725 45.3191 20.3364 45.5043C20.2003 45.6895 19.9975 45.8145 19.7708 45.8527Z" fill="#176C45"/>
</g>
<defs>
<clipPath id="clip0_3336_66752">
<rect width="54" height="54" fill="white"/>
</clipPath>
</defs>
</svg>
